PathFileType	4	(X/Y/Z)	12_2_7_p0_0-263_filt_butterworth.trc
DataRate	CameraRate	NumFrames	NumMarkers	Units	OrigDataRate	OrigDataStartFrame	OrigNumFrames
59.0	59.0	7	27	m	59.0	0	263
Frame#	Time	RHip			RKnee			RAnkle			RBigToe			RSmallToe			RHeel			LHip			LKnee			LAnkle			LBigToe			LSmallToe			LHeel			Neck			Head			Nose			RShoulder			RElbow			RWrist			RThumb			RIndex			RPinky			LShoulder			LElbow			LWrist			LThumb			LIndex			LPinky			
		X1	Y1	Z1	X2	Y2	Z2	X3	Y3	Z3	X4	Y4	Z4	X5	Y5	Z5	X6	Y6	Z6	X7	Y7	Z7	X8	Y8	Z8	X9	Y9	Z9	X10	Y10	Z10	X11	Y11	Z11	X12	Y12	Z12	X13	Y13	Z13	X14	Y14	Z14	X15	Y15	Z15	X16	Y16	Z16	X17	Y17	Z17	X18	Y18	Z18	X19	Y19	Z19	X20	Y20	Z20	X21	Y21	Z21	X22	Y22	Z22	X23	Y23	Z23	X24	Y24	Z24	X25	Y25	Z25	X26	Y26	Z26	X27	Y27	Z27	
0	0.0	0.4313795073240021	0.5374322306790232	1.0858201575660367	0.4659006803323621	0.5399470479971866	1.5256379961502673	0.5130009130433575	0.543235317897899	1.9296819816459045	0.47439030855443043	0.37554001582952284	1.923121532126124	0.535469931939344	0.3836907600196854	1.9053209450807496	0.49623666075918976	0.6105403644793137	2.009737010376767	0.22904970180834805	0.5466684298017478	1.1230248099497213	0.2756431327508668	0.5517752970349502	1.5604510033189165	0.3180898406787656	0.5440069281365355	1.9355167930085724	0.3163578507642717	0.36795404287032835	1.9347475304292248	0.25517048672363557	0.40562154996077127	1.934050836424542	0.3294835286549638	0.5950442084143384	1.9942264255164872	0.30095167718683613	0.5673097724631033	0.5252332165439143	0.2978446229851021	0.5492696341886737	0.28211576970432445	0.2828956031539925	0.46629796154519787	0.38214553223966785	0.45920573275264576	0.5515781724301788	0.6218685424981951	0.5152758917668177	0.5096904909062413	0.8543300876181885	0.38900187675331865	0.3794540226786833	0.9936052803710521	0.2790296318769065	0.3437647259492481	1.049785588375118	0.2811102332396307	0.3391031160342305	1.0625368244438973	0.30204930586178047	0.34135740947476517	1.1078110004524788	0.14583162934680705	0.5496283219942358	0.6318479269763432	0.1311331387079483	0.5097425278421204	0.8700847468168664	0.24527785207107028	0.425129683731759	1.0296458386009064	0.29478968393387517	0.33753172530536923	1.0583486613547777	0.30410499026530935	0.3378785674277502	1.0881507395273755	0.3064930204510309	0.3360872742936394	1.0994524817509237
1	0.0169491525423728	0.42848212325658663	0.5438471664121073	1.0871983657190976	0.4683469957677502	0.5408443957238455	1.5261224251189225	0.5130735854134691	0.5436278805105732	1.9297462698684078	0.47531724933156677	0.37515202481689863	1.9261359764903065	0.5389887377325421	0.39396820188966586	1.911915998344503	0.4993390602823945	0.619225328547426	2.014534942617961	0.22940909202534107	0.5508606519804929	1.1218120263792795	0.2756851117306187	0.5518504015133701	1.5605337432164337	0.3200801999443098	0.5507253340560657	1.9394970751551324	0.31846740415599945	0.377268556673297	1.9394143850850398	0.2545380883852517	0.40615693330041325	1.931387424657616	0.33066774803284793	0.598698483751272	1.996371985976411	0.30061594154277205	0.5666233268692888	0.5247859631279307	0.2978098813140303	0.5492227029202021	0.2823082034938591	0.2828699183969791	0.46619601964814017	0.38219793057349294	0.4591803601161797	0.5515132249589653	0.6218541380345899	0.5148973631850304	0.5096108055071984	0.8550822860884028	0.38949187075286607	0.3787187632976471	0.9942029048530365	0.2829467768831339	0.33721639828375977	1.044838913938288	0.28079000626880934	0.33749912518638114	1.0627519528192533	0.302413217674853	0.34131915320379125	1.1057254204746418	0.14583473466395447	0.5497100802399152	0.6317952501551305	0.1317417720083188	0.5128541917784966	0.8731740814414507	0.24518112817829105	0.42498268833971653	1.0313166086526016	0.2949057401399789	0.3378855959331628	1.054468677457597	0.3031728550936862	0.3315281358270357	1.0820273987065918	0.3052528651973908	0.33512094485211225	1.0996460319814014
2	0.0338983050847457	0.42730713385746216	0.5493497136394232	1.0880169780505387	0.46973652076157885	0.541384001505555	1.5272506318278103	0.5130969565636236	0.5438636749212675	1.9297615346472876	0.4759006082299686	0.3750030114363019	1.9279855672634374	0.5412045993008627	0.3996194183880257	1.91605010138154	0.5010973184637785	0.6237275405885854	2.0165364742904335	0.22947885637545815	0.5527850000286193	1.1208903899224307	0.2757121164426427	0.5519025114909495	1.5605895703199875	0.3205837722866684	0.5523615700358593	1.9404606962204725	0.3198737698417016	0.3832171837322463	1.9430820120758288	0.25421231489297147	0.4069452143255413	1.930020382904703	0.3311938329793357	0.600222767849572	1.997246193127904	0.300411378661739	0.5661942212622122	0.5245300374212913	0.29778929851178937	0.5491908890611581	0.2824074876501794	0.2828473261329742	0.46612765359174657	0.382235567905771	0.4591578258145117	0.5514521939805935	0.6218391838751235	0.5145580713755333	0.5092912622380342	0.8549451374065109	0.3898454676508688	0.3781708938114599	0.9940767304756302	0.2859279699718	0.3335311973560683	1.0418851323701706	0.2806803758554519	0.33646535312913395	1.0623810725192109	0.3026387296666647	0.34128994200887824	1.1044390712615502	0.1458440867445412	0.5497589846322141	0.6317644716649541	0.1319887559165718	0.5141230786627367	0.8748631046951634	0.245099877510319	0.42483792117718555	1.0328318042891433	0.29487549298358057	0.3379809751400095	1.05167961759937	0.3031757443233464	0.3259940943388086	1.0781449102037575	0.30402560649080296	0.3342463334290371	1.0998195751149842
3	0.0508474576271186	0.4276385697248584	0.5529817939811841	1.0883437335212502	0.47001667261145247	0.5415354323969016	1.5288255545572116	0.5130750098817409	0.543908963465523	1.9297387396759413	0.4761005597436697	0.3750577755780545	1.9285609773127521	0.5419217033244365	0.3998901580331543	1.9173546322212127	0.5014590428589285	0.62319384118215	2.0157549526044027	0.22910128866570234	0.5517880914406522	1.1201491056272403	0.27571995439914504	0.5519282233102273	1.560618544840572	0.3196974067709813	0.549263169785516	1.9386208514504504	0.3203969583298285	0.38538611022701064	1.9451260781729203	0.25418003726362465	0.40765971062405515	1.929885017051997	0.3308542199396948	0.5989911278450257	1.9964657632982372	0.30034875614592516	0.5660453531241045	0.524474362070935	0.297780234719637	0.5491693277485262	0.28241319602560244	0.2828292671825937	0.4661409231963272	0.3822579243872365	0.459158553442361	0.5514161361810863	0.6218305016767091	0.514359791862878	0.5087761024329589	0.8541782466575875	0.38994298296201263	0.37815849713103306	0.9936095329380853	0.2873595677681473	0.33260528308414544	1.0410523943927068	0.2806507854262966	0.33385355677464773	1.0612095339883587	0.30270737147267435	0.3412611335644409	1.104013383982926	0.14585102832980307	0.5497604608992397	0.6317630752965709	0.13172900766191606	0.5129669352588714	0.8749277442709716	0.2450404810038087	0.4247230835882267	1.0337993485264263	0.29475218669196557	0.3378370657043967	1.0503900802924022	0.30393796211913204	0.32252244816363507	1.077504181720098	0.3031189557242223	0.33365388159204235	1.1002633222344462
4	0.0677966101694915	0.4282804928068488	0.5545683495020275	1.088512315735592	0.4698265291400143	0.5414943967317808	1.530060450790071	0.5130408199018842	0.5438238143288354	1.9297110510212212	0.47608845969045616	0.37514617683284807	1.9284950892356427	0.5418715236371024	0.3978149772202364	1.9172805252857335	0.5012963927574579	0.6196707073588068	2.0139024127469924	0.2285572554477086	0.5496100547514542	1.1195942055871924	0.27571377008620895	0.5519336536593202	1.5606335260430628	0.31860219504364085	0.5454784421249519	1.936389792022084	0.3204593785786087	0.3851836307417648	1.945507430236297	0.2542486374045126	0.40796404093535116	1.9301666206792771	0.3301688339022975	0.5967143292354665	1.9950611799030813	0.300369868322315	0.5660352051765641	0.5245072178768275	0.29777432070058557	0.5491484169724812	0.2823815117651193	0.2828186551904873	0.4662993219478129	0.3822761106790901	0.45921346730088836	0.5514240945641764	0.6218318188076506	0.5143277920054756	0.508626630548604	0.8534961270908753	0.3895688750478318	0.3795149292059286	0.9936948468519208	0.28720896328481305	0.3326734715285109	1.041222835066614	0.28069682881590924	0.3282147871008516	1.05986652453779	0.30269396915729774	0.34123792779146267	1.1040941244875753	0.14584452374147452	0.5497328211681516	0.6317790582455028	0.13126205201217162	0.5108926938430736	0.87426609028293	0.24498683999663043	0.4246507029046885	1.034096794931392	0.294656991206755	0.33764165647101074	1.0501778767630436	0.30471575695008496	0.3213610543245296	1.0789687042299227	0.3026949069659419	0.33340095308531453	1.1013068625262947
5	0.0847457627118644	0.4285301425456144	0.554620453894753	1.088652985884693	0.4696815857813893	0.5414329908919812	1.5305600241231934	0.513008707652414	0.5436885579480075	1.9296912336289607	0.4760115128211797	0.3751666571518481	1.9283186502108365	0.5417302917502216	0.3963626448726903	1.9172776608364945	0.5014301658419429	0.6167073088145003	2.0126931468480818	0.22822658619245392	0.5482215521821276	1.119365958693069	0.2757022166926905	0.5519092733089659	1.5606387701781745	0.3180521663808808	0.5435841656068661	1.9352938864330222	0.32075730439721206	0.3832111264452206	1.9442392920840164	0.2542967096673476	0.407956846769819	1.9303673377718025	0.3297375830634446	0.595309387702077	1.9941998949098219	0.30044726805529104	0.5660586526328791	0.5245402035036416	0.29776901065129435	0.5491246246846442	0.28234900390562684	0.28282630621492116	0.4665783909335245	0.3822964329440083	0.4593177806236289	0.5514657683218446	0.6218381439850967	0.5143260380921355	0.5100205325631905	0.8533657003594579	0.38854556776545174	0.38292046472002317	0.9946595054954337	0.2859190898837145	0.33266116606876495	1.0414943054900774	0.2809927110960509	0.32175894303314195	1.0592167012432228	0.30268426489716815	0.34124601839769575	1.1045872206292353	0.14582635675621802	0.5497081033306551	0.6317961453454454	0.13096306154079415	0.5096273167353317	0.8737702941752119	0.24492751220946676	0.42461125145763434	1.0340684854554287	0.2946239382584961	0.3375052744054866	1.0503333424047212	0.30511307875314403	0.3214404169923518	1.0805176640969794	0.3025761905996126	0.3333489487608121	1.1027098005832374
6	0.1016949152542373	0.4281592905697752	0.5531802992029465	1.0887407441707586	0.4696997981578267	0.5414206650023352	1.5305725145402538	0.5129726137946693	0.5436049349073963	1.929680817831842	0.4759302001197956	0.37509407866525807	1.9281926115094625	0.541636250860702	0.396104182752368	1.9176869073954077	0.5021398390950933	0.6173245655832591	2.0134159897183768	0.22814651643762648	0.5479139869695622	1.1193728852685985	0.2756937205294589	0.5518454682310182	1.5606345406524118	0.3179766666766056	0.5433344089599106	1.9351693065563509	0.32174120039575	0.37923947363102656	1.9412773207361336	0.25430614223613623	0.40787810159350024	1.930420242821716	0.3296398310655593	0.5949971336130755	1.9940227886657742	0.3005699020118613	0.5661259341072695	0.5245521816388256	0.29776405915898574	0.5490987081186625	0.28232638303986535	0.2828704247699387	0.4666113336045382	0.3822952260271881	0.4593369488463097	0.5514787623004547	0.6218497248889033	0.5141362490239726	0.5138534493827767	0.8543103117972399	0.3871793591803995	0.38739013378517395	0.9959094797008334	0.28427490481228146	0.3323543472859161	1.0415768397724616	0.28155044656131123	0.3175314454575823	1.0588956485029248	0.3027547645925331	0.34125649540582553	1.1056203234457356	0.1458067885245652	0.5496980935614076	0.6318101458740287	0.13088671625946327	0.5093668140345441	0.8736761522556679	0.2448861303710038	0.4246097544385899	1.0341295551885523	0.2946247714250815	0.33741601716361086	1.0504146968829804	0.3051848108178564	0.321715406958331	1.0811830386730665	0.30256764325046337	0.3333443393154072	1.103777809681549
